<?xml version="1.0" encoding="utf-8"?>
<!-- Generator: Adobe Illustrator 25.2.0, SVG Export Plug-In . SVG Version: 6.00 Build 0)  -->
<svg version="1.1" id="Layer_1" xmlns="http://www.w3.org/2000/svg" xmlns:xlink="http://www.w3.org/1999/xlink" x="0px" y="0px"
	 viewBox="0 0 500 500" style="enable-background:new 0 0 500 500;" xml:space="preserve">
<g>
	<path d="M119.61,249.27c-5.62-3.75-8.8-5.62-9.56-5.62c-0.43,0-0.91,0.48-1.35,1.35l-5.62,11.29c-1.39-1.35-4.42-3.6-9.13-6.78
		c-4.76-3.17-7.4-4.71-8.03-4.71c-0.43,0-0.91,0.43-1.35,1.35l-7.21,14.42c-0.29,0.58-0.29,0.96,0,1.11
		c6.01,3.75,11.73,7.74,17.11,11.97c0.77,0.43,1.35,0.14,1.83-0.91c2.11-3.12,4.13-7.06,6.06-11.73
		c6.01,3.94,11.53,7.69,16.49,11.29c0.58,0.43,1.2,0.19,1.78-0.67c5-7.98,7.45-13.17,7.45-15.57
		C128.07,255.28,125.28,253.02,119.61,249.27z M101.25,222.7c-5.58-3.75-8.7-5.62-9.47-5.62c-0.43,0-0.91,0.43-1.35,1.35
		l-6.97,14.42c-0.34,0.62-0.34,0.96,0,1.11c5.82,3.8,11.53,7.69,17.11,11.73c0.58,0.62,1.2,0.38,1.78-0.67
		c4.85-7.93,7.26-13.12,7.26-15.52C109.61,228.7,106.82,226.45,101.25,222.7z"/>
	<path d="M224.05,273.55c-4.66,0-11.63,1.83-20.95,5.43c-8.7,3.75-17.49,7.5-26.39,11.25c-16.39,6.63-31.77,11.82-46.19,15.57
		c-19.99,5.24-38.02,7.88-54.12,7.88c-23.74,0-41.24-4.61-52.53-13.75c-7.64-6.34-11.49-13.36-11.49-21.2
		c0-6.15,0.91-11.97,2.74-17.35c1.49-4.23,3.08-8.41,4.71-12.64c1.06-2.98,1.59-5.19,1.59-6.54c0-0.43-0.1-0.72-0.24-0.91
		c-0.72,0-2.26,1.97-4.52,5.86C10.22,258.89,7,271.67,7,285.51c0,12.93,3.51,23.55,10.57,32.01c10.24,12.02,26.82,18.02,49.84,18.02
		c21.63,0,48.97-5.33,82.04-16c5.38-1.83,21.24-7.83,47.53-18.02c11.73-4.52,19.71-6.78,23.89-6.78c2.74,0,4.09,0.77,4.09,2.26
		c0,2.11-4.52,8.27-13.55,18.46c-9.9,11.15-16.15,21.05-18.7,29.75c-1.78,5.86-2.69,9.42-2.69,10.62c0,0.14,0.05,0.29,0.24,0.43
		c0.43,0,2.69-3.65,6.73-11.05c2.26-4.33,5.67-9.08,10.14-14.18c3.6-3.89,7.16-7.88,10.62-11.97c6.3-7.79,10.04-12.69,11.25-14.61
		c5.14-7.69,7.69-14.13,7.69-19.42C236.69,277.39,232.46,273.55,224.05,273.55z"/>
	<path d="M268.07,166.03c4.81,5.38,7.21,6.87,7.21,4.47c0-0.77-0.19-1.97-0.67-3.6c-0.58-2.07-2.6-7.55-6.01-16.49
		c-3.22-8.6-5.29-13.89-6.2-15.81c-0.43-0.91-0.87-1.39-1.2-1.39c-0.24,0-0.58,0.48-1.01,1.39c-3.12,7.31-4.66,11.97-4.66,13.89
		c1.73,3.46,2.6,7.88,2.6,13.27c0,4.71,1.35,26.43,4.09,65.27c2.79,38.79,4.13,60.89,4.13,66.28c0,5.96-0.29,11.15-0.87,15.62
		c-0.34,3.22-0.38,5.33-0.14,6.39c0.1,0.91,0.58,0.67,1.39-0.72c0.43-0.91,1.11-2.35,2.02-4.28c3.89-9.85,5.86-21.34,5.86-34.41
		c0-4.23-1.25-23.31-3.7-57.24c-2.45-33.93-3.7-51.14-3.7-51.57C267.21,165.6,267.49,165.26,268.07,166.03z"/>
	<path d="M405.33,286.47c-0.53-0.05-1.01-0.1-1.54-0.19c0-0.05,0-0.05,0-0.05C404.33,286.33,404.81,286.38,405.33,286.47z"/>
	<path d="M405.86,286.52h-0.29c-0.1-0.05-0.14-0.05-0.19-0.05C405.53,286.47,405.72,286.52,405.86,286.52z"/>
	<path d="M425.38,340.54c-5.67-3.85-8.84-5.77-9.61-5.77c-0.43,0-0.87,0.48-1.35,1.39l-5.62,11.49c-1.35-1.49-4.37-3.84-9.13-7.02
		c-4.71-3.12-7.4-4.71-7.98-4.71c-0.48,0-0.91,0.43-1.39,1.35l-7.21,14.23c-0.29,0.72-0.29,1.2,0,1.35
		c6.01,3.75,11.73,7.74,17.16,11.92c0.72,0.48,1.35,0.14,1.78-0.87c2.11-3.17,4.13-7.11,6.1-11.73c6.01,3.89,11.49,7.64,16.44,11.25
		c0.62,0.48,1.2,0.24,1.83-0.67c4.95-7.98,7.45-13.17,7.45-15.57C433.84,346.6,431,344.39,425.38,340.54z"/>
	<path d="M489.35,225.39c-3.46-8.27-8.56-12.4-15.33-12.4c-5.38,0-11.01,2.93-16.87,8.8c-4.09,4.09-7.4,8.41-9.95,13.07
		c-1.35,0.19-2.93,2.26-4.71,6.34c-3.75,8.41-6.1,13.46-7.02,15.09c-2.35,4.33-6.06,7.98-11.1,11.01c0.24-2.55,0.38-5.33,0.38-8.31
		c0-7.35-0.96-13.51-2.93-18.46c-1.2-3.46-3.6-7.93-7.21-13.31c-1.06-1.68-2.02-1.68-2.93,0c-2.55,5.58-3.84,11.1-3.84,16.68
		c0,0.91,0.24,1.73,0.72,2.5c4.09,6.49,6.82,11.49,8.17,15c0,0,0,0,0.05,0.05l0.05,0.14c0.05,0.14,0.14,0.34,0.24,0.62
		c0.58,2.26,0.91,8.41-13.79,9.32c-0.05,0-0.05,0-0.1,0c-0.05,0-0.05,0-0.1,0l-0.05-0.05c-0.77-0.96-1.68-1.87-2.74-2.79
		c-4.23-3.51-9.28-5.29-15.14-5.29c-20.43,0-43.54,13.99-69.4,41.91c-17.59,19.27-26.96,29.41-28.16,30.42
		c-10.67,9.8-19.99,14.66-27.97,14.66c-5.09,0-9.08-1.87-11.97-5.62c-2.69-3.46-4.04-8.03-4.04-13.75c0-7.5,2.4-17.78,7.21-30.76
		c4.81-13.02,7.21-20.62,7.21-22.88c0-0.48-0.14-0.77-0.43-0.91c-0.62,0-1.49,1.11-2.69,3.36c-11.15,21.82-16.68,39.55-16.68,53.2
		c0,9.76,2.84,18.02,8.55,24.8c5.38,6.44,11.78,9.71,19.13,9.71c8.6,0,17.73-4.95,27.54-14.9c11.25-12.16,22.49-24.42,33.79-36.72
		c20.14-20.43,38.02-30.66,53.64-30.66c3.99,0,11.68-0.19,18.55,0.38c1.49,0.14,2.98,0.29,4.37,0.53c0,0.05,0,0.05,0,0.05
		c0.53,0.1,1.01,0.14,1.54,0.24h0.05c0.14,0,0.34,0.05,0.48,0.05c0.05,0.05,0.1,0.05,0.14,0.1h0.14c0.77,0,1.54,0,2.31-0.05
		c0.1,0.05,0.19,0.05,0.29,0c0.38,0.05,0.77,0,1.15,0c4.23-0.1,8.65-0.43,14.56-1.44c10.24-1.78,13.51-16.05,17.54-27.06
		c13.55,10.38,27.06,15.57,40.61,15.57c2.69,0,5.09-2.64,7.21-7.88c2.4-5.58,3.6-12.02,3.6-19.37
		C493.43,238.7,492.09,231.73,489.35,225.39z M478.34,251.53c-0.62,0-1.44-0.14-2.5-0.43c-8.41-2.55-15.57-6.01-21.44-10.38
		c0-1.2,0.87-2.45,2.5-3.8c2.26-1.54,5.24-2.26,9.04-2.26c2.69,0,5.38,1.2,8.07,3.6c2.74,2.4,4.52,5.19,5.43,8.31
		c0.29,1.35,0.43,2.4,0.43,3.17C479.88,250.96,479.35,251.53,478.34,251.53z"/>
</g>
</svg>
