<?xml version="1.0" encoding="utf-8"?>
<!-- Generator: Adobe Illustrator 25.2.0, SVG Export Plug-In . SVG Version: 6.00 Build 0)  -->
<svg version="1.1" id="Layer_1" xmlns="http://www.w3.org/2000/svg" xmlns:xlink="http://www.w3.org/1999/xlink" x="0px" y="0px"
	 viewBox="0 0 500 500" style="enable-background:new 0 0 500 500;" xml:space="preserve">
<style type="text/css">
	.st0{fill:url(#SVGID_1_);}
	.st1{fill:url(#SVGID_2_);}
	.st2{fill:url(#SVGID_3_);}
	.st3{fill:url(#SVGID_4_);}
	.st4{fill:url(#SVGID_5_);}
	.st5{font-family:'Constantia';}
	.st6{font-size:49.9359px;}
	.st7{letter-spacing:2.56;}
</style>
<g>
	<g>
		<linearGradient id="SVGID_1_" gradientUnits="userSpaceOnUse" x1="1.4526" y1="219.2487" x2="501.1565" y2="219.2487">
			<stop  offset="0.2132" style="stop-color:#E5BA2D"/>
			<stop  offset="0.3139" style="stop-color:#EAC740"/>
			<stop  offset="0.445" style="stop-color:#FFFA8A"/>
			<stop  offset="0.6895" style="stop-color:#DEAC17"/>
		</linearGradient>
		<path class="st0" d="M444.08,295.07c-4.46-3.75-8.92-7.63-12.66-12.05c-12.95-15.35-25.59-30.94-38.32-46.46
			c-2.99-3.65-5.86-7.43-8.83-11.21c14.01-11.75,26.35-24.31,30.17-42.88c30.49,2.83,58.91,11.84,86.72,23.24
			c-0.41-0.61-0.89-1.02-1.41-1.35c-25.28-16.19-52.32-28.14-81.93-33.84c-1.62-0.31-2.72-0.59-3.06-2.78
			c-2.5-16.49-11.52-27.73-27.44-33.16c-11.46-3.91-23.34-4.18-35.29-4.04c-14.44,0.17-28.88,0.26-43.33,0.31
			c-6.58,0.03-13.18-0.2-19.76-0.09c-1.06,0.01-2.11,1.22-3.15,1.88c1.08,0.6,2.09,1.57,3.23,1.73c2.72,0.4,5.52,0.28,8.26,0.61
			c7.35,0.9,10.86,4.04,11.28,11.42c0.6,10.17,0.59,20.38,0.62,30.57c0,0.89-1.4,2.19-2.43,2.6c-16.26,6.48-32.68,12.6-48.86,19.27
			c-24.04,9.91-47.76,20.63-71.95,30.17c-21.84,8.6-44.7,13.53-68.24,14.59c-32.31,1.44-63.08-5.69-92.93-17.46
			c-7.58-2.98-15.02-6.26-23.33-9.75c0.78,0.84,0.9,1.03,1.07,1.14c23.09,15.95,47.92,28.19,75.34,34.77c2.32,0.56,3.33,1.4,3.24,4
			c-0.28,7.11-0.01,14.24-0.38,21.35c-0.31,6.03-0.91,12.08-1.92,18.02c-0.93,5.41-3.14,7.11-8.59,7.81
			c-2.42,0.31-4.87,0.31-7.29,0.63c-0.68,0.1-1.27,0.85-1.9,1.31c0.5,0.71,0.9,1.83,1.55,2.02c1.39,0.4,2.93,0.41,4.4,0.41
			c19.33-0.03,38.66-0.1,57.99-0.14c2.34-0.01,4.7,0.22,7-0.06c1.39-0.17,2.67-1.14,4.01-1.75c-1.28-0.6-2.51-1.56-3.85-1.73
			c-4.2-0.57-8.46-0.74-12.66-1.27c-2.94-0.36-5.21-2.04-6.28-4.81c-0.88-2.24-1.69-4.65-1.83-7.02
			c-0.59-10.08-0.83-20.16-1.39-30.23c-0.15-2.87,0.74-3.62,3.57-3.47c13.84,0.78,27.61-0.02,41.29-2.21
			c26.2-4.2,50.96-13.03,75.25-23.34c25.41-10.79,50.58-22.14,76.18-32.43c24.65-9.92,50.33-16.17,77.01-17.54
			c1.33-0.06,2.65-0.01,4.11-0.01c0.29,9.93-0.78,19.22-5.34,27.83c-3.01,5.69-7.01,10.78-13.31,12.62
			c-9.71,2.84-19.58,1.72-29.26-0.79c-2.51-0.65-2.5-2.8-2.56-4.88c-0.09-2.3,1.7-2.19,3.05-2.38c8.3-1.15,16.63-2.21,24.94-3.29
			c1-0.13,2.02-0.22,3.03-0.34c-0.03-0.38-0.05-0.78-0.09-1.16c-8.89-0.3-17.79-1.03-26.67-0.8c-24.4,0.63-47.36,7.37-69.26,17.73
			c-17.76,8.39-35.15,17.55-52.78,26.2c-19.54,9.6-39.84,17.09-61.52,20.02c-10.54,1.43-21.18,2.02-31.15,2.93
			c25.19,5.42,50.71,3.72,76.93-4.51c-0.99,9.02-1.7,17.24-2.86,25.38c-0.61,4.21-3.43,6.71-7.85,7.06
			c-2.44,0.19-4.89,0.29-7.3,0.67c-0.88,0.14-1.63,0.98-2.45,1.51c0.78,0.69,1.47,1.8,2.37,2.01c1.52,0.37,3.16,0.22,4.76,0.22
			c14.13-0.06,28.25-0.19,42.38-0.21c7.22-0.01,14.45,0.25,21.67,0.14c1.31-0.02,2.62-1.21,3.92-1.86
			c-1.25-0.64-2.45-1.66-3.76-1.85c-3.36-0.48-6.79-0.44-10.15-0.89c-7-0.95-9.74-3.21-10.37-10.28
			c-0.94-10.57-1.18-21.2-1.53-31.81c-0.03-0.89,1.09-2.18,2.01-2.67c5.81-3.09,11.75-5.93,17.59-8.98
			c17.61-9.18,35.07-18.66,53.75-25.57c1.11-0.42,2.28-0.71,3.7-1.14c0,13.29,0.16,26.03-0.05,38.77
			c-0.17,9.97-0.41,19.97-1.35,29.9c-0.97,10.21-3.3,11.9-13.53,12.63c-1.74,0.13-4.88-1.11-4.8,1.88c0.09,2.7,3.12,1.88,4.98,1.89
			c20.51,0.1,41,0.12,61.51,0.15c1.06,0,2.22,0.19,3.15-0.19c0.92-0.37,1.6-1.35,2.39-2.06c-0.85-0.6-1.67-1.58-2.6-1.71
			c-2.94-0.41-5.93-0.41-8.88-0.74c-8.35-0.94-11.33-3.34-11.71-11.75c-0.82-18.13-0.99-36.3-1.45-54.45
			c-0.05-2.22,1.18-2.65,3.06-2.59c6.16,0.2,12.32,0.45,18.48,0.45c2.84,0.01,4.83,1.04,6.42,3.33c4.55,6.54,9.04,13.12,13.84,19.48
			c8.94,11.86,17.82,23.81,27.25,35.27c5.96,7.26,13.58,13.18,23.26,13.89c12.79,0.95,25.67,0.71,38.51,0.82
			c0.96,0.01,1.93-1.22,2.9-1.86c-1.05-0.62-2.05-1.69-3.14-1.77C458.79,303.35,450.79,300.71,444.08,295.07z M384.65,166.19
			c0-0.01,0-0.01-0.01-0.02c-0.02-0.05-0.03-0.1-0.05-0.15c-4.53,0.44-9.04,0.87-13.55,1.3c-2.46,0.24-4.92,0.47-7.37,0.71
			c-8.86,0.85-17.74,1.71-26.74,2.58c0-3.59-0.01-7.69,0-11.8c0-4.36-0.16-8.72,0.14-13.05c0.09-1.23,1.4-3.2,2.44-3.4
			c4.93-0.96,9.82-1.25,14.49-0.78c1.2,0.11,2.37,0.28,3.53,0.49c1.55,0.29,3.07,0.66,4.54,1.13c0.45,0.14,0.88,0.28,1.31,0.44
			c0.84,0.3,1.68,0.63,2.5,1c0.42,0.18,0.82,0.37,1.23,0.58c0.43,0.21,0.84,0.43,1.26,0.65c0.78,0.43,1.55,0.9,2.3,1.39
			c0.76,0.5,1.51,1.04,2.22,1.61c0.35,0.28,0.71,0.56,1.05,0.85c1.8,1.54,3.45,3.3,4.95,5.29c0.56,0.75,1.1,1.54,1.62,2.36
			c0.27,0.43,0.53,0.87,0.78,1.3c0.26,0.44,0.5,0.89,0.75,1.36c0.25,0.46,0.48,0.93,0.71,1.41c0.18,0.37,0.35,0.76,0.52,1.15
			c0.06,0.14,0.13,0.29,0.19,0.44c0.41,0.95,0.78,1.94,1.13,2.97c0.03,0,0.07-0.01,0.11-0.01
			C384.67,166.09,384.65,166.15,384.65,166.19z"/>
		<linearGradient id="SVGID_2_" gradientUnits="userSpaceOnUse" x1="57.2234" y1="182.9073" x2="251.8181" y2="182.9073">
			<stop  offset="0.2132" style="stop-color:#E5BA2D"/>
			<stop  offset="0.3139" style="stop-color:#EAC740"/>
			<stop  offset="0.445" style="stop-color:#FFFA8A"/>
			<stop  offset="0.6895" style="stop-color:#DEAC17"/>
		</linearGradient>
		<path class="st1" d="M251.82,132.46c-0.49,2.87-3.08,1.76-4.87,1.92c-11.16,0.94-14.15,3.81-14.38,15.13
			c-0.33,16.15-0.37,32.29-0.42,48.45c0,2.24-0.68,3.41-2.77,4.27c-11.56,4.8-23.06,9.78-34.63,14.59
			c-1.51,0.63-3.27,0.92-4.92,0.92c-25.18,0.02-50.36-0.04-75.55-0.07c-4.24-0.01-4.24-0.01-4.25,4.18c-0.01,4.22,0,8.45,0,13.45
			c-9.95-0.68-19.32-1.34-29.02-2v-3.95c-0.05-24.87-0.09-49.73-0.18-74.59c-0.02-3.18-0.31-6.37-0.65-9.53
			c-0.56-5.11-3.32-8.54-8.43-9.5c-3.62-0.67-7.38-0.64-11.04-1.21c-1.23-0.18-2.32-1.24-3.47-1.89c1.12-0.71,2.23-2,3.37-2.02
			c5.52-0.15,11.05,0.12,16.57,0.12c15.6,0,31.21-0.06,46.83-0.09c1.47,0,3-0.09,4.43,0.24c0.73,0.16,1.26,1.15,1.88,1.77
			c-0.66,0.57-1.27,1.51-2.01,1.62c-2.61,0.4-5.28,0.43-7.91,0.76c-5.47,0.71-8.27,3.1-9.17,8.59c-0.73,4.37-1.03,8.86-1.07,13.3
			c-0.15,14.88-0.04,29.75-0.17,44.63c-0.02,2.87,0.85,3.85,3.85,3.84c28.37-0.16,56.73-0.21,85.1-0.16c3.12,0,3.98-0.98,3.93-4.01
			c-0.18-15.72-0.16-31.45-0.27-47.17c-0.02-2.54-0.18-5.1-0.48-7.63c-0.87-7.44-4.17-10.64-11.71-11.42
			c-2.75-0.28-5.52-0.2-8.25-0.6c-1.03-0.15-1.91-1.16-2.86-1.78c0.94-0.66,1.8-1.54,2.84-1.91c0.95-0.33,2.11-0.15,3.16-0.15
			c20.5,0.04,41,0.04,61.5,0.21C248.56,130.78,251.87,132.16,251.82,132.46z"/>
		<linearGradient id="SVGID_3_" gradientUnits="userSpaceOnUse" x1="368.3602" y1="146.5673" x2="370.6577" y2="146.5673">
			<stop  offset="0.2132" style="stop-color:#E5BA2D"/>
			<stop  offset="0.3139" style="stop-color:#EAC740"/>
			<stop  offset="0.445" style="stop-color:#FFFA8A"/>
			<stop  offset="0.6895" style="stop-color:#DEAC17"/>
		</linearGradient>
		<path class="st2" d="M370.66,147.26c-0.75-0.49-1.52-0.95-2.3-1.39C369.14,146.3,369.91,146.77,370.66,147.26z"/>
		<linearGradient id="SVGID_4_" gradientUnits="userSpaceOnUse" x1="378.8753" y1="156.2008" x2="380.4996" y2="156.2008">
			<stop  offset="0.2132" style="stop-color:#E5BA2D"/>
			<stop  offset="0.3139" style="stop-color:#EAC740"/>
			<stop  offset="0.445" style="stop-color:#FFFA8A"/>
			<stop  offset="0.6895" style="stop-color:#DEAC17"/>
		</linearGradient>
		<path class="st3" d="M380.5,157.38c-0.52-0.82-1.07-1.61-1.62-2.36C379.44,155.77,379.98,156.56,380.5,157.38z"/>
		<linearGradient id="SVGID_5_" gradientUnits="userSpaceOnUse" x1="384.5817" y1="166.0961" x2="384.6886" y2="166.0961">
			<stop  offset="0.2132" style="stop-color:#E5BA2D"/>
			<stop  offset="0.3139" style="stop-color:#EAC740"/>
			<stop  offset="0.445" style="stop-color:#FFFA8A"/>
			<stop  offset="0.6895" style="stop-color:#DEAC17"/>
		</linearGradient>
		<path class="st4" d="M384.69,166.01c-0.02,0.09-0.04,0.15-0.04,0.18c0-0.01,0-0.01-0.01-0.02c-0.02-0.05-0.03-0.1-0.05-0.15
			C384.61,166.02,384.66,166.01,384.69,166.01z"/>
	</g>
	<text transform="matrix(1.1732 0 0 1 105.5539 369.7578)" class="st5 st6 st7">Collection</text>
</g>
</svg>
