<?xml version="1.0" encoding="utf-8"?>
<!-- Generator: Adobe Illustrator 25.2.0, SVG Export Plug-In . SVG Version: 6.00 Build 0)  -->
<svg version="1.1" id="Layer_1" xmlns="http://www.w3.org/2000/svg" xmlns:xlink="http://www.w3.org/1999/xlink" x="0px" y="0px"
	 viewBox="0 0 500 500" style="enable-background:new 0 0 500 500;" xml:space="preserve">
<style type="text/css">
	.st0{font-family:'Georgia';}
	.st1{font-size:46.9673px;}
	.st2{letter-spacing:2.49;}
	.st3{fill:url(#SVGID_1_);}
	.st4{fill:url(#SVGID_2_);}
	.st5{fill:url(#SVGID_3_);}
	.st6{fill:url(#SVGID_4_);}
	.st7{fill:url(#SVGID_5_);}
	.st8{fill:url(#SVGID_6_);}
	.st9{fill:url(#SVGID_7_);}
	.st10{fill:url(#SVGID_8_);}
</style>
<text transform="matrix(1.2065 0 0 1 128.9834 380.9854)" class="st0 st1 st2">Clothing</text>
<g>
	<linearGradient id="SVGID_1_" gradientUnits="userSpaceOnUse" x1="80.4398" y1="101.5012" x2="111.0523" y2="101.5012">
		<stop  offset="0.2691" style="stop-color:#E5BA2D"/>
		<stop  offset="0.4182" style="stop-color:#EAC740"/>
		<stop  offset="0.5865" style="stop-color:#FFFA8A"/>
		<stop  offset="0.7454" style="stop-color:#DEAC17"/>
	</linearGradient>
	<polygon class="st3" points="111.05,97.05 101.11,118.72 80.44,105.96 90,84.28 	"/>
	<linearGradient id="SVGID_2_" gradientUnits="userSpaceOnUse" x1="76.0482" y1="141.3638" x2="106.7898" y2="141.3638">
		<stop  offset="0.2691" style="stop-color:#E5BA2D"/>
		<stop  offset="0.4182" style="stop-color:#EAC740"/>
		<stop  offset="0.5865" style="stop-color:#FFFA8A"/>
		<stop  offset="0.7454" style="stop-color:#DEAC17"/>
	</linearGradient>
	<polygon class="st4" points="106.79,136.83 96.97,158.37 76.05,145.9 85.61,124.36 	"/>
	<linearGradient id="SVGID_3_" gradientUnits="userSpaceOnUse" x1="105.4981" y1="127.8556" x2="136.4838" y2="127.8556">
		<stop  offset="0.2691" style="stop-color:#E5BA2D"/>
		<stop  offset="0.4182" style="stop-color:#EAC740"/>
		<stop  offset="0.5865" style="stop-color:#FFFA8A"/>
		<stop  offset="0.7454" style="stop-color:#DEAC17"/>
	</linearGradient>
	<polygon class="st5" points="136.48,123.48 126.42,144.86 105.5,132.09 115.19,110.85 	"/>
	<linearGradient id="SVGID_4_" gradientUnits="userSpaceOnUse" x1="16" y1="208.7623" x2="197.1921" y2="208.7623">
		<stop  offset="0.2691" style="stop-color:#E5BA2D"/>
		<stop  offset="0.4182" style="stop-color:#EAC740"/>
		<stop  offset="0.5865" style="stop-color:#FFFA8A"/>
		<stop  offset="0.7454" style="stop-color:#DEAC17"/>
	</linearGradient>
	<path class="st6" d="M197.19,217.89v40.38H73.98c-16.53,0-29.69-3.32-39.51-9.95C22.16,240.01,16,227,16,209.28
		c0-9.21,1.81-18.6,5.43-28.2c1.29-3.47,4.39-10.05,9.3-19.76l3.88,2.83c-1.89,4.54-3.75,9.1-5.55,13.65
		c-2.5,7.03-3.75,13.31-3.75,18.86c0,11.67,5.34,20.72,16.02,27.16c9.56,5.75,21.64,8.61,36.28,8.61h109.39v-4
		c0-11.09-1.16-20.13-3.49-27.1c-2.32-6.97-6.29-12.94-11.88-17.89l9.95-24.2c3.79,5.45,6.07,8.87,6.85,10.25
		C194.26,180.59,197.19,196.71,197.19,217.89z"/>
	<linearGradient id="SVGID_5_" gradientUnits="userSpaceOnUse" x1="216.1652" y1="169.4975" x2="240.8361" y2="169.4975">
		<stop  offset="0.2691" style="stop-color:#E5BA2D"/>
		<stop  offset="0.4182" style="stop-color:#EAC740"/>
		<stop  offset="0.5865" style="stop-color:#FFFA8A"/>
		<stop  offset="0.7454" style="stop-color:#DEAC17"/>
	</linearGradient>
	<path class="st7" d="M240.84,220.41c0,7.93-1.25,15.6-3.75,23.02c-1.29,3.96-4.09,10.25-8.4,18.86l-2.32-1.49
		c0.26-2.86,0.5-6.18,0.72-9.95c0.22-3.76,0.32-6.28,0.32-7.56c0-10.31-0.7-24.67-2.12-43.13c-1.42-18.46-3.13-37.73-5.11-57.83
		c-1.21-12.17-2.54-24.58-4-37.25c1.72-4.36,3.69-9.07,5.88-14.11c2.2-5.05,4.28-9.81,6.26-14.26c1.38,11.29,3.13,26.73,5.24,46.33
		c2.1,19.59,3.76,37.25,4.97,52.99C240.06,195.63,240.84,210.42,240.84,220.41z"/>
	<linearGradient id="SVGID_6_" gradientUnits="userSpaceOnUse" x1="315.6954" y1="304.9778" x2="346.437" y2="304.9778">
		<stop  offset="0.2691" style="stop-color:#E5BA2D"/>
		<stop  offset="0.4182" style="stop-color:#EAC740"/>
		<stop  offset="0.5865" style="stop-color:#FFFA8A"/>
		<stop  offset="0.7454" style="stop-color:#DEAC17"/>
	</linearGradient>
	<polygon class="st8" points="346.44,300.45 336.62,321.97 315.7,309.5 325.25,287.98 	"/>
	<linearGradient id="SVGID_7_" gradientUnits="userSpaceOnUse" x1="345.1454" y1="291.4696" x2="376.131" y2="291.4696">
		<stop  offset="0.2691" style="stop-color:#E5BA2D"/>
		<stop  offset="0.4182" style="stop-color:#EAC740"/>
		<stop  offset="0.5865" style="stop-color:#FFFA8A"/>
		<stop  offset="0.7454" style="stop-color:#DEAC17"/>
	</linearGradient>
	<polygon class="st9" points="376.13,287.09 366.06,308.47 345.15,295.7 354.83,274.47 	"/>
	<linearGradient id="SVGID_8_" gradientUnits="userSpaceOnUse" x1="192.499" y1="245.3725" x2="481" y2="245.3725">
		<stop  offset="0.2691" style="stop-color:#E5BA2D"/>
		<stop  offset="0.4182" style="stop-color:#EAC740"/>
		<stop  offset="0.5865" style="stop-color:#FFFA8A"/>
		<stop  offset="0.7454" style="stop-color:#DEAC17"/>
	</linearGradient>
	<path class="st10" d="M473.9,204.1c-3.53-8.31-8.27-17.66-14.21-28.06c-5.77,1.58-12.1,5.24-18.97,10.99
		c-7.66,6.43-14.12,13.99-19.38,22.7c-3.88,6.43-8.18,11.43-12.92,15c-6.11,4.55-13.09,6.82-20.93,6.82h-10.72v-10.39
		c0-17.61-1.16-30.23-3.49-37.85c-1.55-5.05-5.43-12.07-11.61-21.08l-10.07,24.2c6.46,8.01,10.49,14.15,12.14,18.4
		c2.4,6.13,3.6,15.05,3.6,26.72h-55.14v-10.23c0-10.49-1.89-20-5.68-28.51c-3.36-7.52-8.57-15.05-15.61-22.56l-7.36,23.3
		c5.76,7.33,10.25,14.46,13.42,21.38c3.96,8.61,5.94,16.82,5.94,24.65c0,9.1-3.83,19.32-11.5,30.65
		c-7.66,11.34-16.91,20.71-27.76,28.14c-11.97,8.11-23.47,12.17-34.49,12.17c-4.99,0-10.56-0.67-16.72-2.01
		c-6.16-1.34-12.07-2.65-17.75-3.93l-2.2,5.94c6.11,2.68,12.27,5.34,18.47,8.01c7.31,3.17,13.59,5.49,18.84,6.97
		c6.89,1.98,13.3,2.97,19.25,2.97c6.46,0,14.68-3.56,24.67-10.69c10.51-7.42,19.27-16.28,26.34-26.58
		c8.09-11.67,12.14-22.96,12.14-33.85h75.68c9.99,0,17.58-1.35,22.79-4.09c5.21-2.72,10.32-7.59,15.31-14.62
		c6.37,6.04,13.72,10.79,22.07,14.25c7.23,2.97,13.73,4.46,19.5,4.46H481v-25.83C481,224.54,478.63,215.39,473.9,204.1z
		 M464.98,230.08c-4.99-0.68-10.3-2.58-15.94-5.64c-5.64-3.07-10.02-6.53-13.1-10.39c2.57-4.95,4.81-8.47,6.7-10.55
		c2.84-3.26,6.33-5.49,10.46-6.68c3.27,4.95,5.9,9.75,7.88,14.4c2.32,5.54,4.05,11.17,5.17,16.92L464.98,230.08z"/>
</g>
</svg>
